<svg xmlns="http://www.w3.org/2000/svg" xmlns:xlink="http://www.w3.org/1999/xlink" width="102" height="104" viewBox="0 0 102 104">
  <defs>
    <linearGradient id="linear-gradient" x1="0.5" x2="0.5" y2="1" gradientUnits="objectBoundingBox">
      <stop offset="0" stop-color="#e8e5e5"/>
      <stop offset="1" stop-color="#b5abab"/>
    </linearGradient>
  </defs>
  <g id="Group_646" data-name="Group 646" transform="translate(-708 -1271)">
    <ellipse id="Ellipse_17" data-name="Ellipse 17" cx="51" cy="52" rx="51" ry="52" transform="translate(708 1271)" fill="url(#linear-gradient)"/>
    <g id="_001-blueprint" data-name="001-blueprint" transform="translate(729.449 1293.469)">
      <path id="Path_3173" data-name="Path 3173" d="M205.376,149.055l-3.5-4.4a1.039,1.039,0,0,1-.265.164l-3.134,1.045a1.066,1.066,0,0,1-.33.053,1.045,1.045,0,0,1-.739-.306l-.306-.306-2.4,2.4-1.477-1.477,2.4-2.4-.306-.306a1.045,1.045,0,0,1-.252-1.068l.586-1.759h-11l2.228,2.786,4.457,5.57Zm0,0" transform="translate(-160.543 -122.329)" fill="#fff"/>
      <path id="Path_3174" data-name="Path 3174" d="M295.313,100.276l4.268-4.268,2.7,2.7-4.267,4.268Zm0,0" transform="translate(-256.754 -83.472)" fill="#fff"/>
      <path id="Path_3175" data-name="Path 3175" d="M281.164,143.209l1.176,1.176,1.7-.567-2.31-2.31Zm0,0" transform="translate(-244.453 -123.032)" fill="#fff"/>
      <path id="Path_3176" data-name="Path 3176" d="M126.835,145.508l-6.183,7.728h12.365l-2.061-2.576Zm0,0" transform="translate(-104.899 -126.509)" fill="#fff"/>
      <path id="Path_3177" data-name="Path 3177" d="M288,252.7h2.089v2.089H288Zm0,0" transform="translate(-250.4 -219.705)" fill="#fff"/>
      <path id="Path_3178" data-name="Path 3178" d="M337.523,109.082V88.012L328.141,97.4l4.976,6.245a.979.979,0,0,1,.134.226c0,.008.011.014.014.024a1.032,1.032,0,0,1,.073.359c0,.016.009.028.009.043v8.968Zm0,0" transform="translate(-285.296 -76.52)" fill="#fff"/>
      <path id="Path_3179" data-name="Path 3179" d="M339.313,11.058,350.37,0l2.7,2.7L342.014,13.759Zm0,0" transform="translate(-295.009)" fill="#fff"/>
      <path id="Path_3180" data-name="Path 3180" d="M152,252.7h4.178v6.267H152Zm0,0" transform="translate(-132.157 -219.705)" fill="#fff"/>
      <path id="Path_3181" data-name="Path 3181" d="M126.627,231.144V220.7H112v10.445h3.134v-7.312a1.045,1.045,0,0,1,1.045-1.044h6.267a1.045,1.045,0,0,1,1.045,1.044v7.312Zm0,0" transform="translate(-97.38 -191.883)" fill="#fff"/>
      <path id="Path_3182" data-name="Path 3182" d="M4.182,54.48V12.7H2.093A2.089,2.089,0,0,0,0,14.788V55.041a4.145,4.145,0,0,1,2.089-.561Zm0,0" transform="translate(-0.003 -11.041)" fill="#fff"/>
      <path id="Path_3183" data-name="Path 3183" d="M43.439,94.124H13.58a1.045,1.045,0,0,1-1.045-1.045V80.545c0-.015.008-.027.008-.043a1.043,1.043,0,0,1,.073-.361c0-.007.008-.012.011-.019a1.087,1.087,0,0,1,.136-.23L21.12,69.447a.063.063,0,0,0,.017-.013,1.046,1.046,0,0,1,.8-.379H36.127L44.483,60.7H6.268V97.258A1.045,1.045,0,0,1,5.224,98.3H2.09a2.089,2.089,0,0,0-2.047,2.507c.008.043.026.082.037.122a1.982,1.982,0,0,0,.084.269c.024.058.059.1.088.164a1.594,1.594,0,0,0,.1.19,2.091,2.091,0,0,0,.259.314,2.214,2.214,0,0,0,.313.26c.045.029.1.05.142.077a2.3,2.3,0,0,0,.209.114,2,2,0,0,0,.243.075c.049.014.1.035.146.045a2.125,2.125,0,0,0,.421.041H35.082ZM8.357,63.833A1.045,1.045,0,0,1,9.4,62.788h3.134v2.089H10.446v2.089H8.357ZM12.535,98.3H9.4a1.045,1.045,0,0,1-1.045-1.045V94.124h2.089v2.089h2.089Zm0,0" transform="translate(0 -52.774)" fill="#fff"/>
      <path id="Path_3184" data-name="Path 3184" d="M354.2,350.891v-6.879l-6.879,6.879Zm0,0" transform="translate(-301.968 -299.096)" fill="#fff"/>
      <path id="Path_3185" data-name="Path 3185" d="M227.316,252.826h28.814V224.012Zm24.636-7.312V247.6a1.045,1.045,0,0,1-1.045,1.044H240.463a1.044,1.044,0,0,1-.738-1.783l10.445-10.445a1.044,1.044,0,0,1,1.783.738Zm0,0" transform="translate(-197.636 -194.763)" fill="#fff"/>
      <path id="Path_3186" data-name="Path 3186" d="M254.627,230.712V220.7H240v10.445h14.191Zm-4.178-2.7a1.045,1.045,0,0,1-1.045,1.045h-4.178a1.045,1.045,0,0,1-1.045-1.045v-4.178a1.045,1.045,0,0,1,1.045-1.044H249.4a1.045,1.045,0,0,1,1.045,1.044Zm0,0" transform="translate(-208.667 -191.883)" fill="#fff"/>
    </g>
  </g>
</svg>
