<svg xmlns="http://www.w3.org/2000/svg" xmlns:xlink="http://www.w3.org/1999/xlink" width="102" height="104" viewBox="0 0 102 104">
  <defs>
    <linearGradient id="linear-gradient" x1="0.5" x2="0.5" y2="1" gradientUnits="objectBoundingBox">
      <stop offset="0" stop-color="#e8e5e5"/>
      <stop offset="1" stop-color="#b5abab"/>
    </linearGradient>
  </defs>
  <g id="Group_647" data-name="Group 647" transform="translate(-893 -1476)">
    <ellipse id="Ellipse_30" data-name="Ellipse 30" cx="51" cy="52" rx="51" ry="52" transform="translate(893 1476)" fill="url(#linear-gradient)"/>
    <g id="Page-1" transform="translate(916 1496)">
      <g id="_020---Ground-Surveyor" data-name="020---Ground-Surveyor">
        <path id="Shape" d="M49,40.14c-.73-.38-1.4-.79-2.06-1.2L42,45.38v1.11a14.272,14.272,0,0,1,1.72.53Z" fill="#fff"/>
        <path id="Shape-2" data-name="Shape" d="M42,36.54v5.55l3.22-4.19A13.926,13.926,0,0,0,42,36.54Z" fill="#fff"/>
        <path id="Shape-3" data-name="Shape" d="M53.32,41.67a15.491,15.491,0,0,1-2.45-.68l-5.26,6.85c.73.38,1.41.79,2.07,1.2Z" fill="#fff"/>
        <path id="Shape-4" data-name="Shape" d="M8,7H2.82L.55,12H8Z" fill="#fff"/>
        <path id="Shape-5" data-name="Shape" d="M24.53,22.05a2.166,2.166,0,0,0-.25-.04A2.715,2.715,0,0,0,24,22c-.12,0-.25.01-.37.02A3,3,0,0,0,24.01,28c.12,0,.24-.01.36-.02a3,3,0,0,0,.16-5.93Z" fill="#fff"/>
        <path id="Shape-6" data-name="Shape" d="M20.02,28a4.952,4.952,0,0,1-.98-2.38A4.885,4.885,0,0,1,19.12,24H10.9a5.468,5.468,0,0,1,.1,1,4.924,4.924,0,0,1-1.03,3Z" fill="#fff"/>
        <path id="Shape-7" data-name="Shape" d="M20.05,21.93a4.957,4.957,0,0,1,3.33-1.89,4.446,4.446,0,0,1,1.03-.01,2.32,2.32,0,0,1,.38.05A4.936,4.936,0,0,1,27.97,22H29a1,1,0,0,0,1-1V5h7V24a1,1,0,0,0-1,1V50.59l2,1.99,2-2V25a1,1,0,0,0-1-1V1a1,1,0,0,0-2,0V3H27.333a3,3,0,0,0-2.774,1.861L19.721,17H14v5h6.01a.251.251,0,0,0,.04-.07ZM26.41,5.615A1,1,0,0,1,27.333,5H28V17H21.873Z" fill="#fff"/>
        <circle id="Oval" cx="3" cy="3" r="3" transform="translate(3 22)" fill="#fff"/>
        <path id="Shape-8" data-name="Shape" d="M1,22H2.03a4.94,4.94,0,0,1,7.94,0H12V4a1,1,0,0,0-1-1H5.28a1.009,1.009,0,0,0-.91.59L3.73,5H9a1,1,0,0,1,1,1v7a1,1,0,0,1-1,1H0v2H2a1,1,0,0,1,0,2H0v3A1,1,0,0,0,1,22Zm6-6H8a1,1,0,0,1,0,2H7a1,1,0,0,1,0-2Z" fill="#fff"/>
        <path id="Shape-9" data-name="Shape" d="M9.26,48.92,14.8,41.7a16.234,16.234,0,0,1-2.47-.67L7.07,47.9c.72.39,1.39.8,2.05,1.2Z" fill="#fff"/>
        <path id="Shape-10" data-name="Shape" d="M51.62,53.24c-3.358-1.055-5.161-2.922-7.95-4.11A11.392,11.392,0,0,0,42,48.55v2.04A2.016,2.016,0,0,1,41.42,52l-2,2a2.021,2.021,0,0,1-1.42.58.68.68,0,0,1-.2-.02A2,2,0,0,1,36.58,54l-2-2a1.977,1.977,0,0,1-.56-1.21.164.164,0,0,1-.01-.1.34.34,0,0,1-.01-.1V48.38c-3.767.835-5.407,2.778-8.7,4.26h-.01a.031.031,0,0,1-.02.01,18.812,18.812,0,0,1-12.16.64c-.01-.01-.01-.01-.02-.01h-.01C9.573,52.2,8.019,50.454,5.13,49.17a13.2,13.2,0,0,0-4.3-1.08q-.36-.045-.75-.06H0v9a1,1,0,0,0,1,1L55,58a1,1,0,0,0,1-1V53.97a16.564,16.564,0,0,1-4.36-.73Z" fill="#fff"/>
        <path id="Shape-11" data-name="Shape" d="M.45,46.05l6.22-8.08a15.169,15.169,0,0,0-2.18-1.05L0,42.77v3.25a.881.881,0,0,1,.17.02A2.62,2.62,0,0,1,.45,46.05Z" fill="#fff"/>
        <path id="Shape-12" data-name="Shape" d="M56,51.97V48.64l-2.34,3.05a17.029,17.029,0,0,0,2.34.28Z" fill="#fff"/>
        <path id="Shape-13" data-name="Shape" d="M55,29.97,42,30v4.47a18.567,18.567,0,0,1,5.85,2.68A15.152,15.152,0,0,0,56,39.96V30.97a1,1,0,0,0-1-1ZM46,34a1,1,0,1,1,1-1A1,1,0,0,1,46,34Zm6,0a1,1,0,1,1,1-1A1,1,0,0,1,52,34Z" fill="#fff"/>
        <path id="Shape-14" data-name="Shape" d="M49.4,50.07a14.859,14.859,0,0,0,2.19,1.03L56,45.35V41.98l-.37-.03Z" fill="#fff"/>
        <path id="Shape-15" data-name="Shape" d="M0,36.04v3.44l2.42-3.15A15.287,15.287,0,0,0,0,36.04Z" fill="#fff"/>
        <path id="Shape-16" data-name="Shape" d="M34,36.38a12.956,12.956,0,0,0-2.1.65L20.53,51.86a13.656,13.656,0,0,0,3.71-.95L34,38.18Z" fill="#fff"/>
        <path id="Shape-17" data-name="Shape" d="M27.51,39.47a17.005,17.005,0,0,1-4.5,1.98L15.13,51.72a17.019,17.019,0,0,0,2.78.27Z" fill="#fff"/>
        <path id="Shape-18" data-name="Shape" d="M14.07,39.49a17.937,17.937,0,0,0,5.86.45,15.13,15.13,0,0,0,7.54-2.79A18.016,18.016,0,0,1,34,34.34V30H1a1,1,0,0,0-1,1v3.02a16.989,16.989,0,0,1,9.2,3.13A17.62,17.62,0,0,0,14.07,39.49ZM30,32a1,1,0,1,1-1,1A1,1,0,0,1,30,32Zm-6,0a1,1,0,1,1-1,1A1,1,0,0,1,24,32Zm-3,3a1,1,0,1,1-1,1A1,1,0,0,1,21,35Zm-3-3a1,1,0,1,1-1,1A1,1,0,0,1,18,32Zm-3,3a1,1,0,1,1-1,1A1,1,0,0,1,15,35Zm-3-3a1,1,0,1,1-1,1A1,1,0,0,1,12,32ZM6,34a1,1,0,1,1,1-1A1,1,0,0,1,6,34Z" fill="#fff"/>
        <path id="Shape-19" data-name="Shape" d="M34,46.34V41.47l-5.34,6.95a16.4,16.4,0,0,1,4.79-1.96c.19-.05.37-.09.55-.12Z" fill="#fff"/>
        <path id="Shape-20" data-name="Shape" d="M20.12,41.93h-.08a19.667,19.667,0,0,1-2.92.03l-6.28,8.18a15.624,15.624,0,0,0,2.21,1.01Z" fill="#fff"/>
        <path id="Shape-21" data-name="Shape" d="M8.25,39.19l-5.5,7.16a15.2,15.2,0,0,1,2.44.7l5.26-6.85c-.73-.38-1.4-.79-2.06-1.19Z" fill="#fff"/>
      </g>
    </g>
  </g>
</svg>
