<svg xmlns="http://www.w3.org/2000/svg" xmlns:xlink="http://www.w3.org/1999/xlink" width="102" height="104" viewBox="0 0 102 104">
  <defs>
    <linearGradient id="linear-gradient" x1="0.5" x2="0.5" y2="1" gradientUnits="objectBoundingBox">
      <stop offset="0" stop-color="#e8e5e5"/>
      <stop offset="1" stop-color="#b5abab"/>
    </linearGradient>
  </defs>
  <g id="Group_650" data-name="Group 650" transform="translate(-708 -2218)">
    <ellipse id="Ellipse_33" data-name="Ellipse 33" cx="51" cy="52" rx="51" ry="52" transform="translate(708 2218)" fill="url(#linear-gradient)"/>
    <g id="_005-deal" data-name="005-deal" transform="translate(725.735 2245.465)">
      <path id="Path_3218" data-name="Path 3218" d="M29.37,9.69V27.927a5.161,5.161,0,0,1-4.774.749l-.527-.194a8.5,8.5,0,0,0-1.554-9.8L13.16,9.329,20.6,6.72Z" transform="translate(23.369 3.146)" fill="#fff"/>
      <path id="Path_3219" data-name="Path 3219" d="M21.311,24.131l9.8,9.632v.028a5.386,5.386,0,0,1-1.388,2.359,5.78,5.78,0,0,1-4.33,1.665L14.955,27.379a1.1,1.1,0,0,0-.361.833,1.133,1.133,0,0,0,.527.972L25.031,38.9a5.528,5.528,0,0,1-1.194,1.8A5.817,5.817,0,0,1,19.7,42.4a5.694,5.694,0,0,1-4-1.61L9.6,35.262A11.9,11.9,0,0,0,4.99,32.653a.768.768,0,0,0,.028-.25V9.086l7.134-2.942a7.24,7.24,0,0,1,6.245.333l-.444.222A8.4,8.4,0,0,0,15.76,20.162a8.4,8.4,0,0,0,5.218,2.415.978.978,0,0,0-.194.583,1.1,1.1,0,0,0,.527.972Z" transform="translate(8.861 1.14)" fill="#fff"/>
      <path id="Path_3220" data-name="Path 3220" d="M25.463,21.148a4.5,4.5,0,0,1-.86,1.194,5.905,5.905,0,0,1-3.692,1.8L10.89,14.153h.333a8.651,8.651,0,0,0,3.831-.916l.888-.472,4.774-2.415,3.858,3.858.028.028A5.759,5.759,0,0,1,25.463,21.148Z" transform="translate(19.338 9.592)" fill="#fff"/>
      <path id="Path_3221" data-name="Path 3221" d="M9.021,33.757H2.082A2.083,2.083,0,0,1,0,31.676V8.082A2.083,2.083,0,0,1,2.082,6H9.021A2.083,2.083,0,0,1,11.1,8.082V31.676A2.083,2.083,0,0,1,9.021,33.757Z" transform="translate(0 1.867)" fill="#fff"/>
      <path id="Path_3222" data-name="Path 3222" d="M29.021,33.757H22.082A2.083,2.083,0,0,1,20,31.676V8.082A2.083,2.083,0,0,1,22.082,6h6.939A2.083,2.083,0,0,1,31.1,8.082V31.676A2.083,2.083,0,0,1,29.021,33.757Z" transform="translate(35.515 1.867)" fill="#fff"/>
      <path id="Path_3223" data-name="Path 3223" d="M33.841,8.145c-.028,0-.056-.028-.111-.028L27.373,5.508a7.336,7.336,0,0,0-6.107.222l-7.578,3.8-1.582.777a5.622,5.622,0,0,0-1.471,9.021,5.635,5.635,0,0,0,6.523,1.027l.916-.472,3.969-2,11.047-5.551,3.692,1.527V9.949a1.8,1.8,0,0,1,.056-.555Z" transform="translate(15.956)" fill="#fff"/>
    </g>
  </g>
</svg>
