<svg xmlns="http://www.w3.org/2000/svg" xmlns:xlink="http://www.w3.org/1999/xlink" width="102" height="104" viewBox="0 0 102 104">
  <defs>
    <linearGradient id="linear-gradient" x1="0.5" x2="0.5" y2="1" gradientUnits="objectBoundingBox">
      <stop offset="0" stop-color="#e8e5e5"/>
      <stop offset="1" stop-color="#b5abab"/>
    </linearGradient>
  </defs>
  <g id="Group_653" data-name="Group 653" transform="translate(-991 -1185)">
    <ellipse id="Ellipse_17" data-name="Ellipse 17" cx="51" cy="52" rx="51" ry="52" transform="translate(991 1185)" fill="url(#linear-gradient)"/>
    <g id="_004-checklist" data-name="004-checklist" transform="translate(1018.788 1204.644)">
      <path id="Path_122" data-name="Path 122" d="M151,0h15.213V7.606H151Z" transform="translate(-137.689)" fill="#fff"/>
      <path id="Path_123" data-name="Path 123" d="M143.606,399.606h1.9V392h-1.9L136,395.8Z" transform="translate(-124.59 -342.305)" fill="#fff"/>
      <path id="Path_124" data-name="Path 124" d="M421,392h5.7v7.606H421Z" transform="translate(-373.46 -342.305)" fill="#fff"/>
      <path id="Path_125" data-name="Path 125" d="M241,392h19.016v7.606H241Z" transform="translate(-216.279 -342.305)" fill="#fff"/>
      <path id="Path_126" data-name="Path 126" d="M46,30V91.1H87.835V87.3H64.119L48.906,79.7l15.213-7.606H87.835V30H78.327v7.606H55.508V30ZM59.311,68.946,54.164,63.8l2.689-2.689,2.459,2.459,6.262-6.262L68.262,60ZM56.852,45.9l2.459,2.459,6.262-6.262,2.689,2.689-8.951,8.951-5.148-5.148Z" transform="translate(-46 -26.197)" fill="#fff"/>
    </g>
  </g>
</svg>
