<?xml version="1.0" encoding="iso-8859-1"?>
<!-- Generator: Adobe Illustrator 18.0.0, SVG Export Plug-In . SVG Version: 6.00 Build 0)  -->
<!DOCTYPE svg PUBLIC "-//W3C//DTD SVG 1.1//EN" "http://www.w3.org/Graphics/SVG/1.1/DTD/svg11.dtd">
<svg version="1.1" id="Capa_1" xmlns="http://www.w3.org/2000/svg" xmlns:xlink="http://www.w3.org/1999/xlink" x="0px" y="0px"
	 viewBox="0 0 455.731 455.731" style="enable-background:new 0 0 455.731 455.731;" xml:space="preserve">
<g>
	<path d="M227.866,163.396c-51.665,0-93.698,42.033-93.698,93.698c0,51.665,42.033,93.698,93.698,93.698
		s93.698-42.033,93.698-93.698C321.563,205.429,279.53,163.396,227.866,163.396z M178.645,283.187
		c-14.738,0-26.686-11.948-26.686-26.686c0-14.739,11.948-26.686,26.686-26.686s26.686,11.948,26.686,26.686
		C205.331,271.239,193.383,283.187,178.645,283.187z"/>
	<path d="M0,0v455.731h455.731V0H0z M227.866,391.117c-73.901,0-134.023-60.123-134.023-134.023V79.78
		c0-11.135,9.027-20.163,20.163-20.163c11.135,0,20.163,9.027,20.163,20.163v81.587c24.183-23.675,57.262-38.296,93.698-38.296
		c73.901,0,134.023,60.122,134.023,134.023S301.766,391.117,227.866,391.117z"/>
</g>
<g>
</g>
<g>
</g>
<g>
</g>
<g>
</g>
<g>
</g>
<g>
</g>
<g>
</g>
<g>
</g>
<g>
</g>
<g>
</g>
<g>
</g>
<g>
</g>
<g>
</g>
<g>
</g>
<g>
</g>
</svg>
