<?xml version="1.0" encoding="iso-8859-1"?>
<!-- Generator: Adobe Illustrator 18.0.0, SVG Export Plug-In . SVG Version: 6.00 Build 0)  -->
<!DOCTYPE svg PUBLIC "-//W3C//DTD SVG 1.1//EN" "http://www.w3.org/Graphics/SVG/1.1/DTD/svg11.dtd">
<svg version="1.1" id="Capa_1" xmlns="http://www.w3.org/2000/svg" xmlns:xlink="http://www.w3.org/1999/xlink" x="0px" y="0px"
	 viewBox="0 0 455.731 455.731" style="enable-background:new 0 0 455.731 455.731;" xml:space="preserve">
<path d="M0,0v455.731h455.731V0H0z M240.894,357.724h-18.027c-58.383,0-105.882-47.499-105.882-105.882V119.884
	c0-12.082,9.795-21.877,21.877-21.877s21.877,9.795,21.877,21.877v131.958c0,34.257,27.87,62.127,62.127,62.127h18.027
	c34.257,0,62.127-27.871,62.127-62.127c0-34.258-27.871-62.128-62.127-62.128h-12.776c-12.082,0-21.877-9.794-21.877-21.877
	s9.795-21.877,21.877-21.877h12.776c58.383,0,105.882,47.499,105.882,105.883C346.776,310.226,299.278,357.724,240.894,357.724z"/>
<g>
</g>
<g>
</g>
<g>
</g>
<g>
</g>
<g>
</g>
<g>
</g>
<g>
</g>
<g>
</g>
<g>
</g>
<g>
</g>
<g>
</g>
<g>
</g>
<g>
</g>
<g>
</g>
<g>
</g>
</svg>
