<?xml version="1.0" encoding="iso-8859-1"?>
<!-- Generator: Adobe Illustrator 18.0.0, SVG Export Plug-In . SVG Version: 6.00 Build 0)  -->
<!DOCTYPE svg PUBLIC "-//W3C//DTD SVG 1.1//EN" "http://www.w3.org/Graphics/SVG/1.1/DTD/svg11.dtd">
<svg version="1.1" id="Capa_1" xmlns="http://www.w3.org/2000/svg" xmlns:xlink="http://www.w3.org/1999/xlink" x="0px" y="0px"
	 viewBox="0 0 455.731 455.731" style="enable-background:new 0 0 455.731 455.731;" xml:space="preserve">
<g>
	<rect x="359.365" y="204.115" width="17" height="47.5"/>
	<rect x="79.365" y="204.115" width="17" height="47.5"/>
	<rect x="247.365" y="204.115" width="17" height="47.5"/>
	<path d="M0,0v455.731h455.731V0H0z M135.365,285.615h-95v-115.5h56v-49h39V285.615z M191.365,285.615h-39v-115.5h39V285.615z
		 M191.365,155.615h-39v-34.5h39V155.615z M303.365,334.615h-95v-33.904h56v-15.096h-56v-115.5h95V334.615z M415.365,334.615h-95
		v-33.904h56v-15.096h-56v-115.5h95V334.615z"/>
</g>
<g>
</g>
<g>
</g>
<g>
</g>
<g>
</g>
<g>
</g>
<g>
</g>
<g>
</g>
<g>
</g>
<g>
</g>
<g>
</g>
<g>
</g>
<g>
</g>
<g>
</g>
<g>
</g>
<g>
</g>
</svg>
