<?xml version="1.0" encoding="iso-8859-1"?>
<!-- Generator: Adobe Illustrator 18.0.0, SVG Export Plug-In . SVG Version: 6.00 Build 0)  -->
<!DOCTYPE svg PUBLIC "-//W3C//DTD SVG 1.1//EN" "http://www.w3.org/Graphics/SVG/1.1/DTD/svg11.dtd">
<svg version="1.1" id="Capa_1" xmlns="http://www.w3.org/2000/svg" xmlns:xlink="http://www.w3.org/1999/xlink" x="0px" y="0px"
	 viewBox="0 0 455.731 455.731" style="enable-background:new 0 0 455.731 455.731;" xml:space="preserve">
<g>
	<path d="M239.693,141.844h-73.29v171.23h73.29c47.28,0,85.61-38.33,85.61-85.619c0-23.645-9.58-45.043-25.079-60.532
		C284.735,151.425,263.328,141.844,239.693,141.844z M234.131,270.607h-20.32v-86.304h20.32c23.836,0,43.152,19.325,43.152,43.152
		C277.283,251.291,257.967,270.607,234.131,270.607z"/>
	<path d="M0,0v455.731h455.731V0H0z M234.532,396.356c-41.225,0-78.989-14.813-108.278-39.399l-73.546,8.174l28.357-67.619
		c-9.644-21.234-15.023-44.805-15.023-69.646c0-93.053,75.437-168.49,168.49-168.49c93.054,0,168.49,75.437,168.49,168.49
		C403.022,320.919,327.586,396.356,234.532,396.356z"/>
</g>
<g>
</g>
<g>
</g>
<g>
</g>
<g>
</g>
<g>
</g>
<g>
</g>
<g>
</g>
<g>
</g>
<g>
</g>
<g>
</g>
<g>
</g>
<g>
</g>
<g>
</g>
<g>
</g>
<g>
</g>
</svg>
