<?xml version="1.0" encoding="iso-8859-1"?>
<!-- Generator: Adobe Illustrator 18.0.0, SVG Export Plug-In . SVG Version: 6.00 Build 0)  -->
<!DOCTYPE svg PUBLIC "-//W3C//DTD SVG 1.1//EN" "http://www.w3.org/Graphics/SVG/1.1/DTD/svg11.dtd">
<svg version="1.1" id="Capa_1" xmlns="http://www.w3.org/2000/svg" xmlns:xlink="http://www.w3.org/1999/xlink" x="0px" y="0px"
	 viewBox="0 0 455.731 455.731" style="enable-background:new 0 0 455.731 455.731;" xml:space="preserve">
<g>
	<path d="M0,0v455.731h455.731V0H0z M306.808,384.297c-15.537,0-30.082-4.213-42.588-11.532c-9.097,1.77-18.492,2.708-28.107,2.708
		c-80.82,0-146.338-65.518-146.338-146.338c0-9.615,0.938-19.01,2.708-28.107c-7.319-12.507-11.532-27.052-11.532-42.588
		c0-46.65,37.817-84.467,84.467-84.467c15.537,0,30.082,4.214,42.589,11.532c9.097-1.77,18.492-2.708,28.107-2.708
		c80.82,0,146.338,65.518,146.338,146.338c0,9.615-0.938,19.01-2.708,28.107c7.319,12.507,11.532,27.052,11.532,42.588
		C391.275,346.48,353.458,384.297,306.808,384.297z"/>
	<path d="M247.392,206.635c-54-10.5-57.5-27-44.5-38.5s51.642-16.665,62.5,3.5c10.5,19.5,18,27.5,32.5,24
		c13.833-3.339,15.833-22.5,10-34c-4.707-9.279-26-33-68-33s-86,15.5-86,54s40,55.5,78.5,61s47.5,22,42.5,34s-21.5,23.5-46.5,21
		s-36.535-23.433-40-34c-3.333-10.167-15-11.5-20.5-11s-23,7.5-15,32s34,44,86,44s82.5-32,82.5-62.5
		S301.392,217.135,247.392,206.635z"/>
</g>
<g>
</g>
<g>
</g>
<g>
</g>
<g>
</g>
<g>
</g>
<g>
</g>
<g>
</g>
<g>
</g>
<g>
</g>
<g>
</g>
<g>
</g>
<g>
</g>
<g>
</g>
<g>
</g>
<g>
</g>
</svg>
