<?xml version="1.0" encoding="iso-8859-1"?>
<!-- Generator: Adobe Illustrator 18.0.0, SVG Export Plug-In . SVG Version: 6.00 Build 0)  -->
<!DOCTYPE svg PUBLIC "-//W3C//DTD SVG 1.1//EN" "http://www.w3.org/Graphics/SVG/1.1/DTD/svg11.dtd">
<svg version="1.1" id="Capa_1" xmlns="http://www.w3.org/2000/svg" xmlns:xlink="http://www.w3.org/1999/xlink" x="0px" y="0px"
	 viewBox="0 0 455.731 455.731" style="enable-background:new 0 0 455.731 455.731;" xml:space="preserve">
<path d="M0,0v455.731h455.731V0H0z M405.695,153.999c-3.525,58.608-88.573,156.434-110.165,179.349
	c-21.592,22.914-60.811,54.201-91.657,48.473s-40.865-45.28-48.473-66.54c-1.693-4.731-29.524-107.521-36.134-127.351
	c-6.61-19.83-17.106-25.558-22.033-25.558c-7.932,0-29.965,17.186-29.965,17.186l-17.626-22.474
	c74.912-68.743,96.945-78.437,109.724-78.437c12.779,0,39.659,7.051,45.829,49.354c6.169,42.303,22.914,115.012,24.236,120.3
	c1.322,5.288,9.254,25.118,19.389,23.796s37.456-43.185,47.151-61.252c9.695-18.067,12.779-42.303,1.322-53.32
	c-11.457-11.017-42.744,0.441-42.744,0.441c9.254-46.269,44.066-72.268,66.98-80.2s47.151-4.847,61.692,4.407
	C391.177,87.234,408.954,99.808,405.695,153.999z"/>
<g>
</g>
<g>
</g>
<g>
</g>
<g>
</g>
<g>
</g>
<g>
</g>
<g>
</g>
<g>
</g>
<g>
</g>
<g>
</g>
<g>
</g>
<g>
</g>
<g>
</g>
<g>
</g>
<g>
</g>
</svg>
