<?xml version="1.0" encoding="iso-8859-1"?>
<!-- Generator: Adobe Illustrator 18.0.0, SVG Export Plug-In . SVG Version: 6.00 Build 0)  -->
<!DOCTYPE svg PUBLIC "-//W3C//DTD SVG 1.1//EN" "http://www.w3.org/Graphics/SVG/1.1/DTD/svg11.dtd">
<svg version="1.1" id="Capa_1" xmlns="http://www.w3.org/2000/svg" xmlns:xlink="http://www.w3.org/1999/xlink" x="0px" y="0px"
	 viewBox="0 0 455.731 455.731" style="enable-background:new 0 0 455.731 455.731;" xml:space="preserve">
<path d="M0,0v455.731h455.731V0H0z M298.127,120.28c-29.679,0-23.971,41.664-22.83,50.796c1.141,9.132,15.41,72.485,90.177,55.933
	v37.098c0,0-27.966,5.707-37.098,4.566c0,0-55.933,106.892-99.88,114.149c0,0-99.107-10.483-132.494-262.169l50.878-1.515
	c0,0,9.703,132.984,81.616,214.029c0,0,39.381-42.235,54.792-76.48c0,0-57.645-23.401-57.645-98.168s49.084-85.612,75.909-85.612
	s65.065,18.835,65.065,72.485c0,16.243-2.41,29.914-5.766,41.094h-49.596C311.254,186.487,327.806,120.28,298.127,120.28z"/>
<g>
</g>
<g>
</g>
<g>
</g>
<g>
</g>
<g>
</g>
<g>
</g>
<g>
</g>
<g>
</g>
<g>
</g>
<g>
</g>
<g>
</g>
<g>
</g>
<g>
</g>
<g>
</g>
<g>
</g>
</svg>
