<svg id="_002-light-bulb" data-name="002-light-bulb" xmlns="http://www.w3.org/2000/svg" width="44.289" height="67.488" viewBox="0 0 44.289 67.488">
  <path id="Path_116" data-name="Path 116" d="M84.268,419H82.159v1.714a10.543,10.543,0,0,1-.242,2.241H61.306a10.543,10.543,0,0,1-.242-2.241V419H58.958a1.977,1.977,0,1,0,0,3.954h2.348a10.547,10.547,0,0,0,20.611,0h2.352a1.977,1.977,0,1,0,0-3.954Zm0,0" transform="translate(-49.47 -363.77)" fill="#fff"/>
  <path id="Path_117" data-name="Path 117" d="M84.268,359h-1.92c-.072.389-.189,1.342-.189,1.45v2.5h-21.1v-2.5c0-.111-.115-1.064-.187-1.45h-1.92a1.977,1.977,0,1,0,0,3.954h2.106v3.954h21.1v-3.954h2.109a1.977,1.977,0,1,0,0-3.954Zm0,0" transform="translate(-49.47 -311.679)" fill="#fff"/>
  <path id="Path_118" data-name="Path 118" d="M22.145,0A22.144,22.144,0,0,0,10.26,40.832c.188,1.016.378,2.118.563,3.191.192,1.109.387,2.239.584,3.3H32.88c.2-1.059.392-2.19.583-3.3.185-1.072.375-2.173.563-3.189A22.146,22.146,0,0,0,22.145,0Zm6.419,22.334-7.77,9.682a1.977,1.977,0,1,1-3.084-2.475l5.19-6.468H17.267a1.977,1.977,0,0,1-1.55-3.2L22.978,10.7a1.977,1.977,0,0,1,3.1,2.455l-4.722,5.962h5.666a1.977,1.977,0,0,1,1.542,3.215Zm0,0" fill="#fff"/>
</svg>
