<svg id="_003-home" data-name="003-home" xmlns="http://www.w3.org/2000/svg" width="63.31" height="64.06" viewBox="0 0 63.31 64.06">
  <path id="Path_119" data-name="Path 119" d="M381.089,40.877A1.877,1.877,0,0,0,379.212,39H371.7a1.877,1.877,0,0,0-1.877,1.877v.178l11.261,9.936Z" transform="translate(-323.931 -34.121)" fill="#fff"/>
  <path id="Path_120" data-name="Path 120" d="M65.674,26.745,35.9.471a1.877,1.877,0,0,0-2.483,0L3.634,26.745A1.877,1.877,0,1,0,6.118,29.56l4.016-3.543V60.308H8.379a1.877,1.877,0,0,0,0,3.754h52.55a1.877,1.877,0,1,0,0-3.754H59.175V26.017l4.016,3.543a1.877,1.877,0,1,0,2.483-2.815ZM43.788,47.424C41.06,50.248,37.178,53.1,34.654,53.1c-2.628,0-6.573-3.211-9.153-5.961C23.294,44.784,19.59,40.155,19.59,35.6a8.828,8.828,0,0,1,15.065-6.24A8.828,8.828,0,0,1,49.719,35.6c0,4.949-3.716,9.534-5.931,11.827Z" transform="translate(-2.999 -0.001)" fill="#fff"/>
  <path id="Path_121" data-name="Path 121" d="M183.152,244a5.037,5.037,0,0,0-4.557,2.85,1.877,1.877,0,0,1-3.374,0,5.067,5.067,0,0,0-9.624,2.216c0,2.328,1.8,5.654,4.825,8.9,2.948,3.165,5.751,4.816,6.492,4.851.749-.012,3.553-1.543,6.453-4.554,3.084-3.2,4.853-6.552,4.853-9.194A5.072,5.072,0,0,0,183.152,244Z" transform="translate(-145.253 -213.471)" fill="#fff"/>
</svg>
