<svg id="_005-shield" data-name="005-shield" xmlns="http://www.w3.org/2000/svg" width="60.013" height="60.179" viewBox="0 0 60.013 60.179">
  <g id="Group_275" data-name="Group 275" transform="translate(0 0)">
    <g id="Group_274" data-name="Group 274" transform="translate(0 0)">
      <path id="Path_127" data-name="Path 127" d="M74.554,36.222a1.062,1.062,0,0,0-1.062-1.062h-27.7a1.062,1.062,0,0,0-1.062,1.062,8.253,8.253,0,0,1-8.073,8.253,1.062,1.062,0,0,0-1.157.957,1.079,1.079,0,0,0,0,.118c.187,9.629.968,17.6,4.287,23.946s9.242,11.111,19.572,14.023a1.054,1.054,0,0,0,.581,0C70.274,80.587,76.157,75.9,79.516,69.5S83.622,55.2,83.8,45.584a1.055,1.055,0,0,0-1.007-1.1h-.041A8.253,8.253,0,0,1,74.554,36.222Z" transform="translate(-29.654 -29.29)" fill="#fff"/>
      <path id="Path_128" data-name="Path 128" d="M59.468,11.686A10.617,10.617,0,0,1,48.917,1.062,1.062,1.062,0,0,0,47.855,0H13.132A1.062,1.062,0,0,0,12.1,1.075,10.617,10.617,0,0,1,1.747,11.692C1.086,11.706.5,11.98.5,12.767.725,24.8,1.667,34.683,5.84,42.67s11.5,13.816,24.366,17.468a1.054,1.054,0,0,0,.581,0c12.881-3.653,20.2-9.462,24.38-17.475,4.093-7.819,5.1-17.622,5.342-29.455C60.523,12.594,60.456,11.686,59.468,11.686Zm-6.183,30c-3.873,7.405-10.724,12.848-22.79,16.327C18.434,54.529,11.529,49,7.7,41.675S2.882,25.021,2.621,13.742A12.747,12.747,0,0,0,14.174,2.123H46.82A12.747,12.747,0,0,0,58.366,13.749C58.112,25.027,57.157,34.276,53.284,41.681Z" transform="translate(-0.498 0)" fill="#fff"/>
    </g>
  </g>
</svg>
